<svg width="40" height="40" viewBox="0 0 40 40" fill="none" xmlns="http://www.w3.org/2000/svg">
    <path fill-rule="evenodd" clipRule="evenodd"
        d="M20 40C31.0457 40 40 31.0457 40 20C40 8.9543 31.0457 0 20 0C8.9543 0 0 8.9543 0 20C0 31.0457 8.9543 40 20 40Z"
        fill="#DFA72C" />
    <path fill-rule="evenodd" clipRule="evenodd"
        d="M21.0932 27V20.7H23.1334L23.4667 17.9H21.0932V16.5364C21.0932 15.8154 21.1129 15.1 22.1875 15.1H23.276V13.098C23.276 13.0679 22.3411 13 21.3952 13C19.4197 13 18.1828 14.1599 18.1828 16.29V17.9H16V20.7H18.1828V27H21.0932Z"
        fill="white" />
</svg>