<svg width="17" height="18" viewBox="0 0 17 18" fill="none" xmlns="http://www.w3.org/2000/svg">
<path d="M14.3936 2.94921C12.8091 1.37067 10.7013 0.500779 8.45801 0.499878C6.21972 0.499878 4.10856 1.369 2.51368 2.94715C0.915961 4.52801 0.035262 6.62887 0.0332031 8.85507V8.85764V8.85919C0.0334605 10.2066 0.387464 11.5659 1.05944 12.8066L0.0562372 17.3665L4.66858 16.3173C5.83676 16.9061 7.14018 17.2164 8.45479 17.2169H8.45814C10.696 17.2169 12.8072 16.3477 14.4023 14.7694C16.0015 13.1873 16.8826 11.0891 16.8836 8.8615C16.8842 6.64959 16.0001 4.54988 14.3936 2.94921ZM8.45801 15.9005H8.45505C7.27465 15.9 6.10506 15.6037 5.0729 15.0433L4.85479 14.9249L1.78778 15.6224L2.45397 12.5948L2.32554 12.3734C1.68702 11.2722 1.34962 10.0567 1.34962 8.85777C1.35206 4.97711 4.54054 1.81629 8.45775 1.81629C10.3501 1.81707 12.1283 2.55068 13.4645 3.88177C14.8209 5.23344 15.5677 7.00179 15.567 8.86112C15.5655 12.7427 12.3764 15.9005 8.45801 15.9005Z" fill="#2AF598"/>
<path d="M6.16707 5.17493H5.79775C5.6692 5.17493 5.46048 5.22305 5.28393 5.41518C5.10725 5.60743 4.60938 6.0721 4.60938 7.01714C4.60938 7.96218 5.30001 8.87531 5.39626 9.0036C5.49265 9.13177 6.72941 11.133 8.68821 11.9029C10.3162 12.5427 10.6475 12.4155 11.0007 12.3834C11.3541 12.3515 12.141 11.9189 12.3016 11.4704C12.4622 11.022 12.4622 10.6375 12.4141 10.5572C12.3658 10.4771 12.2373 10.4291 12.0446 10.3331C11.8519 10.237 10.9073 9.7645 10.7306 9.70029C10.554 9.63633 10.4255 9.60429 10.297 9.79667C10.1684 9.98866 9.78998 10.4329 9.67751 10.561C9.56517 10.6893 9.4527 10.7054 9.25994 10.6093C9.06717 10.5129 8.45285 10.3065 7.71666 9.65229C7.14364 9.14309 6.74601 8.49376 6.63354 8.30151C6.5212 8.10939 6.62157 8.00542 6.71821 7.90955C6.80482 7.82359 6.92179 7.70597 7.01817 7.59389C7.11443 7.48168 7.14183 7.40164 7.20618 7.27347C7.27039 7.14531 7.23822 7.03309 7.19009 6.9371C7.14183 6.84097 6.772 5.89117 6.6006 5.5113H6.60073C6.45635 5.1914 6.30437 5.18059 6.16707 5.17493Z" fill="#2AF598"/>
</svg>
